<mxfile host="app.diagrams.net" agent="Mozilla/5.0 (Windows NT 10.0; Win64; x64) AppleWebKit/537.36 (KHTML, like Gecko) Chrome/133.0.0.0 Safari/537.36" version="26.1.0">
  <diagram name="Page-1" id="xd12qEpsqtQwsDDIqP1e">
    <mxGraphModel dx="2924" dy="1098" grid="1" gridSize="10" guides="1" tooltips="1" connect="1" arrows="1" fold="1" page="1" pageScale="1" pageWidth="850" pageHeight="1100" math="0" shadow="0">
      <root>
        <mxCell id="0" />
        <mxCell id="1" parent="0" />
        <mxCell id="TPjJE6BHevZepen-6ryd-10" style="edgeStyle=orthogonalEdgeStyle;rounded=0;orthogonalLoop=1;jettySize=auto;html=1;fontSize=16;" parent="1" source="TPjJE6BHevZepen-6ryd-1" target="TPjJE6BHevZepen-6ryd-2" edge="1">
          <mxGeometry relative="1" as="geometry" />
        </mxCell>
        <mxCell id="TPjJE6BHevZepen-6ryd-1" value="创建CentOS7虚拟机，分区&lt;div&gt;biosboot + /boot分区 + LVM双系统分区&amp;nbsp;&lt;/div&gt;" style="rounded=1;whiteSpace=wrap;html=1;fontSize=16;" parent="1" vertex="1">
          <mxGeometry x="-770" y="395" width="410" height="60" as="geometry" />
        </mxCell>
        <mxCell id="TPjJE6BHevZepen-6ryd-11" style="edgeStyle=orthogonalEdgeStyle;rounded=0;orthogonalLoop=1;jettySize=auto;html=1;entryX=0.5;entryY=0;entryDx=0;entryDy=0;fontSize=16;" parent="1" source="TPjJE6BHevZepen-6ryd-2" target="TPjJE6BHevZepen-6ryd-3" edge="1">
          <mxGeometry relative="1" as="geometry" />
        </mxCell>
        <mxCell id="TPjJE6BHevZepen-6ryd-2" value="使用sgdisk导出目标系统的分区表" style="rounded=1;whiteSpace=wrap;html=1;fontSize=16;" parent="1" vertex="1">
          <mxGeometry x="-770" y="500" width="410" height="60" as="geometry" />
        </mxCell>
        <mxCell id="YlwcxtkEYrSurukruhT5-6" style="edgeStyle=none;curved=1;rounded=0;orthogonalLoop=1;jettySize=auto;html=1;entryX=0.5;entryY=0;entryDx=0;entryDy=0;fontSize=12;startSize=8;endSize=8;" parent="1" source="TPjJE6BHevZepen-6ryd-3" target="TPjJE6BHevZepen-6ryd-9" edge="1">
          <mxGeometry relative="1" as="geometry" />
        </mxCell>
        <mxCell id="TPjJE6BHevZepen-6ryd-3" value="导出虚拟机的OVA, 解压VMDK根文件系统得到升级包" style="rounded=1;whiteSpace=wrap;html=1;fontSize=16;" parent="1" vertex="1">
          <mxGeometry x="-770" y="610" width="410" height="60" as="geometry" />
        </mxCell>
        <mxCell id="f8_PxrkqKKkVCrh1AQIu-2" style="edgeStyle=none;curved=1;rounded=0;orthogonalLoop=1;jettySize=auto;html=1;entryX=1;entryY=0.5;entryDx=0;entryDy=0;fontSize=16;startSize=8;endSize=8;exitX=0;exitY=0.5;exitDx=0;exitDy=0;" parent="1" source="TPjJE6BHevZepen-6ryd-6" target="TPjJE6BHevZepen-6ryd-24" edge="1">
          <mxGeometry relative="1" as="geometry" />
        </mxCell>
        <mxCell id="YlwcxtkEYrSurukruhT5-2" style="edgeStyle=none;curved=1;rounded=0;orthogonalLoop=1;jettySize=auto;html=1;fontSize=12;startSize=8;endSize=8;spacing=2;verticalAlign=middle;" parent="1" source="TPjJE6BHevZepen-6ryd-6" edge="1">
          <mxGeometry relative="1" as="geometry">
            <mxPoint x="-15" y="395" as="targetPoint" />
          </mxGeometry>
        </mxCell>
        <mxCell id="TPjJE6BHevZepen-6ryd-6" value="从网络下载升级包&lt;div&gt;(目标系统文件压缩包+定制的initramfs)&lt;/div&gt;" style="rounded=1;whiteSpace=wrap;html=1;fontSize=16;spacing=2;verticalAlign=middle;" parent="1" vertex="1">
          <mxGeometry x="-220" y="285" width="410" height="60" as="geometry" />
        </mxCell>
        <mxCell id="TPjJE6BHevZepen-6ryd-43" style="edgeStyle=orthogonalEdgeStyle;rounded=0;orthogonalLoop=1;jettySize=auto;html=1;entryX=0;entryY=0.5;entryDx=0;entryDy=0;curved=1;fontSize=16;" parent="1" source="TPjJE6BHevZepen-6ryd-8" target="TPjJE6BHevZepen-6ryd-22" edge="1">
          <mxGeometry relative="1" as="geometry" />
        </mxCell>
        <mxCell id="YlwcxtkEYrSurukruhT5-12" style="edgeStyle=none;curved=1;rounded=0;orthogonalLoop=1;jettySize=auto;html=1;fontSize=12;startSize=8;endSize=8;" parent="1" source="TPjJE6BHevZepen-6ryd-8" target="YlwcxtkEYrSurukruhT5-8" edge="1">
          <mxGeometry relative="1" as="geometry" />
        </mxCell>
        <mxCell id="TPjJE6BHevZepen-6ryd-8" value="修改GRUB默认启动项, 通过定制initramfs进入紧急模式" style="rounded=1;whiteSpace=wrap;html=1;fontSize=16;spacing=2;verticalAlign=middle;" parent="1" vertex="1">
          <mxGeometry x="-220" y="395" width="410" height="60" as="geometry" />
        </mxCell>
        <mxCell id="YlwcxtkEYrSurukruhT5-15" style="edgeStyle=none;curved=1;rounded=0;orthogonalLoop=1;jettySize=auto;html=1;fontSize=12;startSize=8;endSize=8;" parent="1" source="TPjJE6BHevZepen-6ryd-9" target="YlwcxtkEYrSurukruhT5-14" edge="1">
          <mxGeometry relative="1" as="geometry" />
        </mxCell>
        <mxCell id="TPjJE6BHevZepen-6ryd-9" value="将目标系统压缩包和分区表一并打包" style="rounded=1;whiteSpace=wrap;html=1;fontSize=16;" parent="1" vertex="1">
          <mxGeometry x="-770" y="720" width="410" height="60" as="geometry" />
        </mxCell>
        <mxCell id="TPjJE6BHevZepen-6ryd-35" style="edgeStyle=orthogonalEdgeStyle;rounded=0;orthogonalLoop=1;jettySize=auto;html=1;entryX=0.5;entryY=0;entryDx=0;entryDy=0;fontSize=16;spacing=2;verticalAlign=middle;" parent="1" source="TPjJE6BHevZepen-6ryd-14" target="TPjJE6BHevZepen-6ryd-15" edge="1">
          <mxGeometry relative="1" as="geometry" />
        </mxCell>
        <mxCell id="TPjJE6BHevZepen-6ryd-14" value="挂载根分区, 备份升级包和系统配置到临时内存" style="rounded=1;whiteSpace=wrap;html=1;fontSize=16;spacing=2;verticalAlign=middle;" parent="1" vertex="1">
          <mxGeometry x="-220" y="610" width="410" height="60" as="geometry" />
        </mxCell>
        <mxCell id="TPjJE6BHevZepen-6ryd-36" style="edgeStyle=orthogonalEdgeStyle;rounded=0;orthogonalLoop=1;jettySize=auto;html=1;fontSize=16;spacing=2;verticalAlign=middle;" parent="1" source="TPjJE6BHevZepen-6ryd-15" target="TPjJE6BHevZepen-6ryd-16" edge="1">
          <mxGeometry relative="1" as="geometry" />
        </mxCell>
        <mxCell id="TPjJE6BHevZepen-6ryd-15" value="利用目标系统的分区表重建分区" style="rounded=1;whiteSpace=wrap;html=1;fontSize=16;spacing=2;verticalAlign=middle;" parent="1" vertex="1">
          <mxGeometry x="-220" y="720" width="410" height="60" as="geometry" />
        </mxCell>
        <mxCell id="TPjJE6BHevZepen-6ryd-37" style="edgeStyle=orthogonalEdgeStyle;rounded=0;orthogonalLoop=1;jettySize=auto;html=1;fontSize=16;spacing=2;verticalAlign=middle;" parent="1" source="TPjJE6BHevZepen-6ryd-16" target="TPjJE6BHevZepen-6ryd-17" edge="1">
          <mxGeometry relative="1" as="geometry" />
        </mxCell>
        <mxCell id="TPjJE6BHevZepen-6ryd-16" value="把升级包解压到系统分区, 系统配置也同步到系统分区" style="rounded=1;whiteSpace=wrap;html=1;fontSize=16;spacing=2;verticalAlign=middle;" parent="1" vertex="1">
          <mxGeometry x="-220" y="830" width="410" height="60" as="geometry" />
        </mxCell>
        <mxCell id="TPjJE6BHevZepen-6ryd-38" style="edgeStyle=orthogonalEdgeStyle;rounded=0;orthogonalLoop=1;jettySize=auto;html=1;entryX=0.5;entryY=0;entryDx=0;entryDy=0;fontSize=16;spacing=2;verticalAlign=middle;" parent="1" source="TPjJE6BHevZepen-6ryd-17" target="TPjJE6BHevZepen-6ryd-19" edge="1">
          <mxGeometry relative="1" as="geometry" />
        </mxCell>
        <mxCell id="TPjJE6BHevZepen-6ryd-17" value="重新调整boot分区UUID" style="rounded=1;whiteSpace=wrap;html=1;fontSize=16;spacing=2;verticalAlign=middle;" parent="1" vertex="1">
          <mxGeometry x="-220" y="940" width="410" height="60" as="geometry" />
        </mxCell>
        <mxCell id="YlwcxtkEYrSurukruhT5-19" style="edgeStyle=none;curved=1;rounded=0;orthogonalLoop=1;jettySize=auto;html=1;entryX=0.5;entryY=0;entryDx=0;entryDy=0;fontSize=12;startSize=8;endSize=8;" parent="1" source="TPjJE6BHevZepen-6ryd-19" target="YlwcxtkEYrSurukruhT5-18" edge="1">
          <mxGeometry relative="1" as="geometry" />
        </mxCell>
        <mxCell id="TPjJE6BHevZepen-6ryd-19" value="把当前的LVM配置文件同步到磁盘" style="rounded=1;whiteSpace=wrap;html=1;fontSize=16;spacing=2;verticalAlign=middle;" parent="1" vertex="1">
          <mxGeometry x="-220" y="1050" width="410" height="60" as="geometry" />
        </mxCell>
        <mxCell id="YlwcxtkEYrSurukruhT5-21" style="edgeStyle=none;curved=1;rounded=0;orthogonalLoop=1;jettySize=auto;html=1;fontSize=12;startSize=8;endSize=8;" parent="1" source="TPjJE6BHevZepen-6ryd-21" target="f8_PxrkqKKkVCrh1AQIu-3" edge="1">
          <mxGeometry relative="1" as="geometry" />
        </mxCell>
        <mxCell id="TPjJE6BHevZepen-6ryd-21" value="重启, 切换到目标系统, 做配置恢复" style="rounded=1;whiteSpace=wrap;html=1;fontSize=16;spacing=2;verticalAlign=middle;" parent="1" vertex="1">
          <mxGeometry x="-220" y="1270" width="410" height="60" as="geometry" />
        </mxCell>
        <mxCell id="TPjJE6BHevZepen-6ryd-29" style="edgeStyle=orthogonalEdgeStyle;rounded=0;orthogonalLoop=1;jettySize=auto;html=1;fontSize=16;" parent="1" source="TPjJE6BHevZepen-6ryd-22" target="TPjJE6BHevZepen-6ryd-23" edge="1">
          <mxGeometry relative="1" as="geometry" />
        </mxCell>
        <mxCell id="TPjJE6BHevZepen-6ryd-22" value="如何定制initramfs" style="rounded=1;whiteSpace=wrap;html=1;fillColor=light-dark(#97D077,var(--ge-dark-color, #121212));fontSize=16;" parent="1" vertex="1">
          <mxGeometry x="320" y="395" width="410" height="60" as="geometry" />
        </mxCell>
        <mxCell id="YlwcxtkEYrSurukruhT5-7" style="edgeStyle=none;curved=1;rounded=0;orthogonalLoop=1;jettySize=auto;html=1;entryX=0.5;entryY=0;entryDx=0;entryDy=0;fontSize=12;startSize=8;endSize=8;" parent="1" source="TPjJE6BHevZepen-6ryd-23" target="TPjJE6BHevZepen-6ryd-26" edge="1">
          <mxGeometry relative="1" as="geometry" />
        </mxCell>
        <mxCell id="TPjJE6BHevZepen-6ryd-23" value="从官方镜像获取initramfs并解压" style="rounded=1;whiteSpace=wrap;html=1;fontSize=16;" parent="1" vertex="1">
          <mxGeometry x="320" y="500" width="410" height="60" as="geometry" />
        </mxCell>
        <mxCell id="TPjJE6BHevZepen-6ryd-25" style="edgeStyle=orthogonalEdgeStyle;rounded=0;orthogonalLoop=1;jettySize=auto;html=1;fontSize=16;" parent="1" source="TPjJE6BHevZepen-6ryd-24" target="TPjJE6BHevZepen-6ryd-1" edge="1">
          <mxGeometry relative="1" as="geometry" />
        </mxCell>
        <mxCell id="TPjJE6BHevZepen-6ryd-24" value="制作目标系统文件的压缩包" style="rounded=1;whiteSpace=wrap;html=1;fillColor=light-dark(#97D077,var(--ge-dark-color, #121212));fontSize=16;" parent="1" vertex="1">
          <mxGeometry x="-770" y="285" width="410" height="60" as="geometry" />
        </mxCell>
        <mxCell id="TPjJE6BHevZepen-6ryd-31" style="edgeStyle=orthogonalEdgeStyle;rounded=0;orthogonalLoop=1;jettySize=auto;html=1;fontSize=16;" parent="1" source="TPjJE6BHevZepen-6ryd-26" target="TPjJE6BHevZepen-6ryd-28" edge="1">
          <mxGeometry relative="1" as="geometry" />
        </mxCell>
        <mxCell id="TPjJE6BHevZepen-6ryd-26" value="&lt;div&gt;将升级脚本做到initramfs中&lt;/div&gt;通过修改dracut-emergency.service执行升级脚本" style="rounded=1;whiteSpace=wrap;html=1;fontSize=16;" parent="1" vertex="1">
          <mxGeometry x="320" y="605" width="410" height="60" as="geometry" />
        </mxCell>
        <mxCell id="TPjJE6BHevZepen-6ryd-32" style="edgeStyle=orthogonalEdgeStyle;rounded=0;orthogonalLoop=1;jettySize=auto;html=1;fontSize=16;spacing=2;verticalAlign=middle;entryX=0.5;entryY=0;entryDx=0;entryDy=0;" parent="1" source="TPjJE6BHevZepen-6ryd-27" target="TPjJE6BHevZepen-6ryd-6" edge="1">
          <mxGeometry relative="1" as="geometry">
            <mxPoint x="-15" y="279.9999999999998" as="targetPoint" />
          </mxGeometry>
        </mxCell>
        <mxCell id="TPjJE6BHevZepen-6ryd-27" value="开始" style="rounded=1;whiteSpace=wrap;html=1;fillColor=light-dark(#97D077,var(--ge-dark-color, #121212));fontSize=16;spacing=2;verticalAlign=middle;" parent="1" vertex="1">
          <mxGeometry x="-220" y="175" width="410" height="60" as="geometry" />
        </mxCell>
        <mxCell id="YlwcxtkEYrSurukruhT5-17" style="edgeStyle=none;curved=1;rounded=0;orthogonalLoop=1;jettySize=auto;html=1;entryX=0.5;entryY=0;entryDx=0;entryDy=0;fontSize=12;startSize=8;endSize=8;" parent="1" source="TPjJE6BHevZepen-6ryd-28" target="YlwcxtkEYrSurukruhT5-16" edge="1">
          <mxGeometry relative="1" as="geometry" />
        </mxCell>
        <mxCell id="TPjJE6BHevZepen-6ryd-28" value="重新压缩initramfs" style="rounded=1;whiteSpace=wrap;html=1;fontSize=16;" parent="1" vertex="1">
          <mxGeometry x="320" y="715" width="410" height="60" as="geometry" />
        </mxCell>
        <mxCell id="f8_PxrkqKKkVCrh1AQIu-1" value="&lt;font style=&quot;font-size: 32px;&quot;&gt;通过定制initramfs实现从单系统分区到双系统分区的自动升级&lt;/font&gt;" style="rounded=1;whiteSpace=wrap;html=1;strokeWidth=0;strokeColor=#FFFFFF;" parent="1" vertex="1">
          <mxGeometry x="-770" y="90" width="1500" height="60" as="geometry" />
        </mxCell>
        <mxCell id="f8_PxrkqKKkVCrh1AQIu-3" value="迁移结束" style="rounded=1;whiteSpace=wrap;html=1;fillColor=light-dark(#97D077,var(--ge-dark-color, #121212));fontSize=16;spacing=2;verticalAlign=middle;" parent="1" vertex="1">
          <mxGeometry x="-220" y="1390" width="410" height="60" as="geometry" />
        </mxCell>
        <mxCell id="YlwcxtkEYrSurukruhT5-5" style="edgeStyle=none;curved=1;rounded=0;orthogonalLoop=1;jettySize=auto;html=1;exitX=0.5;exitY=1;exitDx=0;exitDy=0;fontSize=12;startSize=8;endSize=8;" parent="1" source="TPjJE6BHevZepen-6ryd-9" target="TPjJE6BHevZepen-6ryd-9" edge="1">
          <mxGeometry relative="1" as="geometry" />
        </mxCell>
        <mxCell id="YlwcxtkEYrSurukruhT5-10" style="edgeStyle=orthogonalEdgeStyle;curved=1;rounded=0;orthogonalLoop=1;jettySize=auto;html=1;entryX=0;entryY=0.5;entryDx=0;entryDy=0;fontSize=12;startSize=8;endSize=8;" parent="1" source="YlwcxtkEYrSurukruhT5-8" target="TPjJE6BHevZepen-6ryd-26" edge="1">
          <mxGeometry relative="1" as="geometry" />
        </mxCell>
        <mxCell id="YlwcxtkEYrSurukruhT5-13" style="edgeStyle=none;curved=1;rounded=0;orthogonalLoop=1;jettySize=auto;html=1;fontSize=12;startSize=8;endSize=8;" parent="1" source="YlwcxtkEYrSurukruhT5-8" target="TPjJE6BHevZepen-6ryd-14" edge="1">
          <mxGeometry relative="1" as="geometry" />
        </mxCell>
        <mxCell id="YlwcxtkEYrSurukruhT5-8" value="执行initramfs中的升级脚本" style="rounded=1;whiteSpace=wrap;html=1;fontSize=16;spacing=2;verticalAlign=middle;" parent="1" vertex="1">
          <mxGeometry x="-220" y="500" width="410" height="60" as="geometry" />
        </mxCell>
        <mxCell id="YlwcxtkEYrSurukruhT5-11" value="" style="shape=stencil(fZbdcgIhDIWfZm8zQAg/17Z9j85U606tdqz9e/tmZ0c0uJ47xP0I5JwEBl59bp8/1kNwn6fj4W39M76ctgM/DCGM++36OJ50NPDjwKvN4bh+PR6+9i/z74/n6ctp9H74nlb4nbmSKZeJCu5vngmZ6jzzNAO7cX8FVKEsBuBKrgKg9oAE8gkCbLeUhEoEQKSUDZDLeWYRKIl8MEDRmHwfyBrBG6Amyu4+kDxxMoB3jhwgYu7TVAsVkFcWCs4CTBEoF4RctKeOxHIf8IXYpikHikAIf+MNUW94AGSSaoAoFIE3AlOyeWU+p2E5S9yfQZcQILVuQOwZdJNoS9Ls3wA5u2XZTIHECqeJ9kDpSaauRiNVcAY1QhdBzeLBli5WazpkSsBLV25uRaqWRyFawTQzRRIQYirJzq5atkBqLfouwqUxLBepthWb10vrWZY6UOAeyKCCtDV625mm9gmUC4Wc3VLJMMIE1BsA2FW9JraVlQB7n3c9oMKhCLEvIM1zBPZ25/umNQ1tVEC2G+fFCC8g398O2hNQuQlVu752DBfA+q0ptnqO5JFmeuIuo9DY7KjY71UxdJV4EntifPWorW++R/dC4t7V3DlIB5cHx2bc7eb3yvX//QNFp+bHDT/+Aw==);lineShape=1;strokeColor=default;" parent="1" vertex="1">
          <mxGeometry x="837.8679608424754" y="371.87531245851915" width="4.67253977211567" height="4.665236216357698" as="geometry" />
        </mxCell>
        <mxCell id="YlwcxtkEYrSurukruhT5-14" value="结束" style="rounded=1;whiteSpace=wrap;html=1;fillColor=light-dark(#97D077,var(--ge-dark-color, #121212));fontSize=16;spacing=2;verticalAlign=middle;" parent="1" vertex="1">
          <mxGeometry x="-770" y="830" width="410" height="60" as="geometry" />
        </mxCell>
        <mxCell id="YlwcxtkEYrSurukruhT5-16" value="结束" style="rounded=1;whiteSpace=wrap;html=1;fillColor=light-dark(#97D077,var(--ge-dark-color, #121212));fontSize=16;spacing=2;verticalAlign=middle;" parent="1" vertex="1">
          <mxGeometry x="320" y="830" width="410" height="60" as="geometry" />
        </mxCell>
        <mxCell id="YlwcxtkEYrSurukruhT5-20" style="edgeStyle=none;curved=1;rounded=0;orthogonalLoop=1;jettySize=auto;html=1;fontSize=12;startSize=8;endSize=8;" parent="1" source="YlwcxtkEYrSurukruhT5-18" target="TPjJE6BHevZepen-6ryd-21" edge="1">
          <mxGeometry relative="1" as="geometry" />
        </mxCell>
        <mxCell id="YlwcxtkEYrSurukruhT5-18" value="导入用户口令, chroot生成initramfs, 重装GRUB" style="rounded=1;whiteSpace=wrap;html=1;fontSize=16;spacing=2;verticalAlign=middle;" parent="1" vertex="1">
          <mxGeometry x="-220" y="1160" width="410" height="60" as="geometry" />
        </mxCell>
      </root>
    </mxGraphModel>
  </diagram>
</mxfile>
